<mxfile host="65bd71144e">
    <diagram id="q14IiLRXBmb8PRQ_uYk1" name="Page-1">
        <mxGraphModel dx="733" dy="710" grid="0" gridSize="10" guides="1" tooltips="1" connect="1" arrows="1" fold="1" page="1" pageScale="1" pageWidth="1169" pageHeight="827" background="#ffffff" math="0" shadow="0">
            <root>
                <mxCell id="0"/>
                <mxCell id="1" parent="0"/>
                <mxCell id="47" style="edgeStyle=none;html=1;exitX=1;exitY=0.5;exitDx=0;exitDy=0;entryX=0.007;entryY=0.151;entryDx=0;entryDy=0;entryPerimeter=0;fontSize=15;fontColor=#000000;startArrow=none;strokeColor=#000000;endArrow=none;endFill=0;" parent="1" source="57" target="207" edge="1">
                    <mxGeometry relative="1" as="geometry">
                        <mxPoint x="358.4499999999998" y="132.399" as="targetPoint"/>
                    </mxGeometry>
                </mxCell>
                <mxCell id="48" value="" style="edgeStyle=none;html=1;exitX=1;exitY=0.5;exitDx=0;exitDy=0;entryX=0;entryY=0.5;entryDx=0;entryDy=0;fontSize=15;fontColor=#000000;endArrow=none;startArrow=none;strokeColor=#000000;" parent="1" source="52" target="198" edge="1">
                    <mxGeometry relative="1" as="geometry">
                        <mxPoint x="125" y="131.5" as="sourcePoint"/>
                        <mxPoint x="190.9999999999992" y="132" as="targetPoint"/>
                    </mxGeometry>
                </mxCell>
                <mxCell id="49" style="edgeStyle=none;html=1;exitX=1;exitY=0.5;exitDx=0;exitDy=0;entryX=0.004;entryY=0.839;entryDx=0;entryDy=0;fontSize=15;fontColor=#000000;startArrow=none;entryPerimeter=0;endArrow=none;endFill=0;strokeColor=#000000;" parent="1" source="60" target="208" edge="1">
                    <mxGeometry relative="1" as="geometry">
                        <mxPoint x="357.54999999999995" y="270.03099999999984" as="targetPoint"/>
                    </mxGeometry>
                </mxCell>
                <mxCell id="51" value="" style="edgeStyle=none;html=1;exitX=1;exitY=0.5;exitDx=0;exitDy=0;entryX=0;entryY=0.5;entryDx=0;entryDy=0;fontSize=15;fontColor=#000000;endArrow=none;startArrow=none;strokeColor=#000000;" parent="1" source="54" target="196" edge="1">
                    <mxGeometry relative="1" as="geometry">
                        <mxPoint x="124.55000000000001" y="269.5" as="sourcePoint"/>
                        <mxPoint x="189.99999999999682" y="270" as="targetPoint"/>
                    </mxGeometry>
                </mxCell>
                <UserObject label="&lt;font style=&quot;font-size: 15px ; line-height: 1&quot;&gt;0,N&lt;/font&gt;" lucidchartObjectId="3bly9.hPKQTv" id="52">
                    <mxCell style="html=1;overflow=block;blockSpacing=1;whiteSpace=wrap;fontSize=20.2;spacing=3.8;strokeOpacity=0;fillOpacity=100;rounded=1;absoluteArcSize=1;arcSize=9;fillColor=none;strokeWidth=2;align=center;strokeColor=#000000;fontColor=#000000;" parent="1" vertex="1">
                        <mxGeometry x="159" y="115" width="35" height="34" as="geometry"/>
                    </mxCell>
                </UserObject>
                <mxCell id="53" value="" style="edgeStyle=none;html=1;exitX=1;exitY=0.5;exitDx=0;exitDy=0;entryX=0;entryY=0.5;entryDx=0;entryDy=0;fontSize=15;fontColor=#000000;endArrow=none;strokeColor=#000000;" parent="1" source="194" target="52" edge="1">
                    <mxGeometry relative="1" as="geometry">
                        <mxPoint x="96.99999999999989" y="131.5" as="sourcePoint"/>
                        <mxPoint x="191" y="132" as="targetPoint"/>
                    </mxGeometry>
                </mxCell>
                <UserObject label="&lt;font style=&quot;font-size: 15px ; line-height: 1&quot;&gt;0,N&lt;/font&gt;" lucidchartObjectId="3bly9.hPKQTv" id="54">
                    <mxCell style="html=1;overflow=block;blockSpacing=1;whiteSpace=wrap;fontSize=20.2;spacing=3.8;strokeOpacity=0;fillOpacity=100;rounded=1;absoluteArcSize=1;arcSize=9;fillColor=none;strokeWidth=2;align=center;strokeColor=#000000;fontColor=#000000;" parent="1" vertex="1">
                        <mxGeometry x="156" y="253" width="35" height="34" as="geometry"/>
                    </mxCell>
                </UserObject>
                <mxCell id="56" value="" style="edgeStyle=none;html=1;exitX=1;exitY=0.5;exitDx=0;exitDy=0;entryX=0;entryY=0.5;entryDx=0;entryDy=0;fontSize=15;fontColor=#000000;endArrow=none;strokeColor=#000000;" parent="1" source="191" target="54" edge="1">
                    <mxGeometry relative="1" as="geometry">
                        <mxPoint x="98.04999999999995" y="269.8589999999999" as="sourcePoint"/>
                        <mxPoint x="189.99999999999977" y="270" as="targetPoint"/>
                    </mxGeometry>
                </mxCell>
                <UserObject label="&lt;font style=&quot;font-size: 15px ; line-height: 1&quot;&gt;1,1&lt;/font&gt;" lucidchartObjectId="3bly9.hPKQTv" id="57">
                    <mxCell style="html=1;overflow=block;blockSpacing=1;whiteSpace=wrap;fontSize=20.2;spacing=3.8;strokeOpacity=0;fillOpacity=100;rounded=1;absoluteArcSize=1;arcSize=9;fillColor=none;strokeWidth=2;align=center;strokeColor=#000000;fontColor=#000000;" parent="1" vertex="1">
                        <mxGeometry x="300" y="115" width="35" height="34" as="geometry"/>
                    </mxCell>
                </UserObject>
                <mxCell id="58" value="" style="edgeStyle=none;html=1;exitX=1;exitY=0.5;exitDx=0;exitDy=0;entryX=0;entryY=0.5;entryDx=0;entryDy=0;fontSize=15;fontColor=#000000;startArrow=none;endArrow=none;strokeColor=#000000;" parent="1" source="198" target="57" edge="1">
                    <mxGeometry relative="1" as="geometry">
                        <mxPoint x="256.0000000000009" y="132" as="sourcePoint"/>
                        <mxPoint x="325.45000000000005" y="132.399" as="targetPoint"/>
                    </mxGeometry>
                </mxCell>
                <UserObject label="&lt;font style=&quot;font-size: 15px ; line-height: 1&quot;&gt;1,1&lt;/font&gt;" lucidchartObjectId="3bly9.hPKQTv" id="60">
                    <mxCell style="html=1;overflow=block;blockSpacing=1;whiteSpace=wrap;fontSize=20.2;spacing=3.8;strokeOpacity=0;fillOpacity=100;rounded=1;absoluteArcSize=1;arcSize=9;fillColor=none;strokeWidth=2;align=center;strokeColor=#000000;fontColor=#000000;" parent="1" vertex="1">
                        <mxGeometry x="300" y="253" width="35" height="34" as="geometry"/>
                    </mxCell>
                </UserObject>
                <mxCell id="61" value="" style="edgeStyle=none;html=1;exitX=1;exitY=0.5;exitDx=0;exitDy=0;entryX=0;entryY=0.5;entryDx=0;entryDy=0;fontSize=15;fontColor=#000000;startArrow=none;endArrow=none;strokeColor=#000000;" parent="1" source="196" target="60" edge="1">
                    <mxGeometry relative="1" as="geometry">
                        <mxPoint x="324.55000000000007" y="270.031" as="targetPoint"/>
                        <mxPoint x="255.45000000000323" y="270" as="sourcePoint"/>
                    </mxGeometry>
                </mxCell>
                <mxCell id="62" style="edgeStyle=none;html=1;exitX=1;exitY=0.5;exitDx=0;exitDy=0;fontSize=15;fontColor=#000000;startArrow=none;strokeColor=#000000;endArrow=none;endFill=0;entryX=-0.002;entryY=0.276;entryDx=0;entryDy=0;entryPerimeter=0;" parent="1" source="67" target="205" edge="1">
                    <mxGeometry relative="1" as="geometry">
                        <mxPoint x="702" y="170" as="targetPoint"/>
                    </mxGeometry>
                </mxCell>
                <mxCell id="64" value="" style="edgeStyle=none;html=1;exitX=1;exitY=0.5;exitDx=0;exitDy=0;entryX=0;entryY=0.5;entryDx=0;entryDy=0;fontSize=15;fontColor=#000000;endArrow=none;startArrow=none;strokeColor=#000000;" parent="1" source="65" target="203" edge="1">
                    <mxGeometry relative="1" as="geometry">
                        <mxPoint x="506" y="169.5" as="sourcePoint"/>
                        <mxPoint x="572" y="170" as="targetPoint"/>
                    </mxGeometry>
                </mxCell>
                <UserObject label="&lt;font style=&quot;font-size: 15px ; line-height: 1&quot;&gt;1,1&lt;/font&gt;" lucidchartObjectId="3bly9.hPKQTv" id="65">
                    <mxCell style="html=1;overflow=block;blockSpacing=1;whiteSpace=wrap;fontSize=20.2;spacing=3.8;strokeOpacity=0;fillOpacity=100;rounded=1;absoluteArcSize=1;arcSize=9;fillColor=none;strokeWidth=2;align=center;strokeColor=#000000;fontColor=#000000;" parent="1" vertex="1">
                        <mxGeometry x="510" y="153" width="35" height="34" as="geometry"/>
                    </mxCell>
                </UserObject>
                <mxCell id="66" value="" style="edgeStyle=none;html=1;exitX=0.996;exitY=0.224;exitDx=0;exitDy=0;entryX=0;entryY=0.5;entryDx=0;entryDy=0;fontSize=15;fontColor=#000000;endArrow=none;exitPerimeter=0;strokeColor=#000000;" parent="1" source="208" target="65" edge="1">
                    <mxGeometry relative="1" as="geometry">
                        <mxPoint x="507.8499999999999" y="169.98599999999988" as="sourcePoint"/>
                        <mxPoint x="567.55" y="194" as="targetPoint"/>
                    </mxGeometry>
                </mxCell>
                <UserObject label="&lt;font style=&quot;font-size: 15px ; line-height: 1&quot;&gt;0,N&lt;/font&gt;" lucidchartObjectId="3bly9.hPKQTv" id="67">
                    <mxCell style="html=1;overflow=block;blockSpacing=1;whiteSpace=wrap;fontSize=20.2;spacing=3.8;strokeOpacity=0;fillOpacity=100;rounded=1;absoluteArcSize=1;arcSize=9;fillColor=none;strokeWidth=2;align=center;strokeColor=#000000;fontColor=#000000;" parent="1" vertex="1">
                        <mxGeometry x="665" y="153" width="35" height="34" as="geometry"/>
                    </mxCell>
                </UserObject>
                <mxCell id="68" value="" style="edgeStyle=none;html=1;exitX=1;exitY=0.5;exitDx=0;exitDy=0;entryX=0;entryY=0.5;entryDx=0;entryDy=0;fontSize=15;fontColor=#000000;startArrow=none;endArrow=none;strokeColor=#000000;" parent="1" source="203" target="67" edge="1">
                    <mxGeometry relative="1" as="geometry">
                        <mxPoint x="637" y="170" as="sourcePoint"/>
                        <mxPoint x="706.45" y="170.399" as="targetPoint"/>
                    </mxGeometry>
                </mxCell>
                <mxCell id="70" style="edgeStyle=none;html=1;exitX=0.5;exitY=0;exitDx=0;exitDy=0;fontSize=15;fontColor=#000000;endArrow=none;endFill=0;strokeColor=#000000;startArrow=none;entryX=0.5;entryY=1;entryDx=0;entryDy=0;" parent="1" source="72" target="204" edge="1">
                    <mxGeometry relative="1" as="geometry">
                        <mxPoint x="777" y="315" as="targetPoint"/>
                    </mxGeometry>
                </mxCell>
                <mxCell id="71" style="edgeStyle=none;html=1;exitX=0.5;exitY=1;exitDx=0;exitDy=0;entryX=0.5;entryY=0;entryDx=0;entryDy=0;fontSize=15;fontColor=#000000;endArrow=none;endFill=0;strokeColor=#000000;startArrow=none;" parent="1" source="74" target="175" edge="1">
                    <mxGeometry relative="1" as="geometry">
                        <mxPoint x="777" y="515" as="targetPoint"/>
                    </mxGeometry>
                </mxCell>
                <UserObject label="&lt;font style=&quot;font-size: 15px ; line-height: 1&quot;&gt;0,N&lt;/font&gt;" lucidchartObjectId="3bly9.hPKQTv" id="72">
                    <mxCell style="html=1;overflow=block;blockSpacing=1;whiteSpace=wrap;fontSize=20.2;spacing=3.8;strokeOpacity=0;fillOpacity=100;rounded=1;absoluteArcSize=1;arcSize=9;fillColor=none;strokeWidth=2;align=center;strokeColor=#000000;fontColor=#000000;" parent="1" vertex="1">
                        <mxGeometry x="759.5" y="341" width="35" height="34" as="geometry"/>
                    </mxCell>
                </UserObject>
                <mxCell id="73" value="" style="edgeStyle=none;html=1;exitX=0.5;exitY=0;exitDx=0;exitDy=0;fontSize=15;fontColor=#000000;endArrow=none;endFill=0;strokeColor=#000000;entryX=0.5;entryY=1;entryDx=0;entryDy=0;" parent="1" source="202" target="72" edge="1">
                    <mxGeometry relative="1" as="geometry">
                        <mxPoint x="777" y="395" as="sourcePoint"/>
                        <mxPoint x="777" y="315" as="targetPoint"/>
                    </mxGeometry>
                </mxCell>
                <UserObject label="&lt;font style=&quot;font-size: 15px ; line-height: 1&quot;&gt;1,1&lt;/font&gt;" lucidchartObjectId="3bly9.hPKQTv" id="74">
                    <mxCell style="html=1;overflow=block;blockSpacing=1;whiteSpace=wrap;fontSize=20.2;spacing=3.8;strokeOpacity=0;fillOpacity=100;rounded=1;absoluteArcSize=1;arcSize=9;fillColor=none;strokeWidth=2;align=center;strokeColor=#000000;fontColor=#000000;" parent="1" vertex="1">
                        <mxGeometry x="759.5" y="461" width="35" height="34" as="geometry"/>
                    </mxCell>
                </UserObject>
                <mxCell id="75" value="" style="edgeStyle=none;html=1;exitX=0.5;exitY=1;exitDx=0;exitDy=0;entryX=0.5;entryY=0;entryDx=0;entryDy=0;fontSize=15;fontColor=#000000;endArrow=none;endFill=0;strokeColor=#000000;" parent="1" source="202" target="74" edge="1">
                    <mxGeometry relative="1" as="geometry">
                        <mxPoint x="777" y="436.9999999999998" as="sourcePoint"/>
                        <mxPoint x="777" y="515.0000000000001" as="targetPoint"/>
                    </mxGeometry>
                </mxCell>
                <mxCell id="93" value="" style="edgeStyle=none;html=1;exitX=1;exitY=0.5;exitDx=0;exitDy=0;entryX=0;entryY=0.5;entryDx=0;entryDy=0;fontSize=15;fontColor=#000000;endArrow=none;endFill=0;strokeColor=#000000;startArrow=none;" parent="1" source="94" target="179" edge="1">
                    <mxGeometry relative="1" as="geometry">
                        <mxPoint x="852" y="507.5" as="sourcePoint"/>
                        <mxPoint x="917.0000000000025" y="579" as="targetPoint"/>
                        <Array as="points"/>
                    </mxGeometry>
                </mxCell>
                <UserObject label="&lt;font style=&quot;font-size: 15px ; line-height: 1&quot;&gt;1,1&lt;/font&gt;" lucidchartObjectId="3bly9.hPKQTv" id="94">
                    <mxCell style="html=1;overflow=block;blockSpacing=1;whiteSpace=wrap;fontSize=20.2;spacing=3.8;strokeOpacity=0;fillOpacity=100;rounded=1;absoluteArcSize=1;arcSize=9;fillColor=none;strokeWidth=2;align=center;strokeColor=#000000;fontColor=#000000;" parent="1" vertex="1">
                        <mxGeometry x="856" y="562" width="35" height="34" as="geometry"/>
                    </mxCell>
                </UserObject>
                <mxCell id="95" value="" style="edgeStyle=none;html=1;exitX=0.994;exitY=0.811;exitDx=0;exitDy=0;entryX=0;entryY=0.5;entryDx=0;entryDy=0;fontSize=15;fontColor=#000000;endArrow=none;endFill=0;strokeColor=#000000;exitPerimeter=0;" parent="1" target="94" edge="1">
                    <mxGeometry relative="1" as="geometry">
                        <mxPoint x="837.0507" y="579.2909999999999" as="sourcePoint"/>
                        <mxPoint x="941.9999999999925" y="588" as="targetPoint"/>
                        <Array as="points"/>
                    </mxGeometry>
                </mxCell>
                <UserObject label="&lt;font style=&quot;font-size: 15px ; line-height: 1&quot;&gt;0,N&lt;/font&gt;" lucidchartObjectId="3bly9.hPKQTv" id="96">
                    <mxCell style="html=1;overflow=block;blockSpacing=1;whiteSpace=wrap;fontSize=20.2;spacing=3.8;strokeOpacity=0;fillOpacity=100;rounded=1;absoluteArcSize=1;arcSize=9;fillColor=none;strokeWidth=2;align=center;strokeColor=#000000;fontColor=#000000;" parent="1" vertex="1">
                        <mxGeometry x="929" y="496" width="35" height="34" as="geometry"/>
                    </mxCell>
                </UserObject>
                <mxCell id="107" style="edgeStyle=none;html=1;exitX=0.5;exitY=0;exitDx=0;exitDy=0;entryX=0.5;entryY=1;entryDx=0;entryDy=0;fontSize=15;fontColor=#000000;endArrow=none;endFill=0;strokeColor=#000000;startArrow=none;" parent="1" source="111" target="161" edge="1">
                    <mxGeometry relative="1" as="geometry">
                        <mxPoint x="488" y="592.104" as="targetPoint"/>
                    </mxGeometry>
                </mxCell>
                <UserObject label="&lt;font style=&quot;font-size: 15px ; line-height: 1&quot;&gt;0,N&lt;/font&gt;" lucidchartObjectId="3bly9.hPKQTv" id="109">
                    <mxCell style="html=1;overflow=block;blockSpacing=1;whiteSpace=wrap;fontSize=20.2;spacing=3.8;strokeOpacity=0;fillOpacity=100;rounded=1;absoluteArcSize=1;arcSize=9;fillColor=none;strokeWidth=2;align=center;strokeColor=#000000;fontColor=#000000;" parent="1" vertex="1">
                        <mxGeometry x="657" y="693" width="35" height="34" as="geometry"/>
                    </mxCell>
                </UserObject>
                <mxCell id="110" value="" style="edgeStyle=none;html=1;fontSize=15;fontColor=#000000;endArrow=none;endFill=0;strokeColor=#000000;exitX=1;exitY=0;exitDx=0;exitDy=0;entryX=0;entryY=0.5;entryDx=0;entryDy=0;" parent="1" source="170" target="109" edge="1">
                    <mxGeometry relative="1" as="geometry">
                        <mxPoint x="627.45" y="709.405" as="sourcePoint"/>
                        <mxPoint x="653" y="709" as="targetPoint"/>
                    </mxGeometry>
                </mxCell>
                <UserObject label="&lt;font style=&quot;font-size: 15px ; line-height: 1&quot;&gt;1,N&lt;/font&gt;" lucidchartObjectId="3bly9.hPKQTv" id="111">
                    <mxCell style="html=1;overflow=block;blockSpacing=1;whiteSpace=wrap;fontSize=20.2;spacing=3.8;strokeOpacity=0;fillOpacity=100;rounded=1;absoluteArcSize=1;arcSize=9;fillColor=none;strokeWidth=2;align=center;strokeColor=#000000;fontColor=#000000;" parent="1" vertex="1">
                        <mxGeometry x="470.5" y="619" width="35" height="34" as="geometry"/>
                    </mxCell>
                </UserObject>
                <mxCell id="112" value="" style="edgeStyle=none;html=1;exitX=0;exitY=0;exitDx=0;exitDy=0;entryX=0.5;entryY=1;entryDx=0;entryDy=0;fontSize=15;fontColor=#000000;endArrow=none;endFill=0;strokeColor=#000000;" parent="1" source="170" target="111" edge="1">
                    <mxGeometry relative="1" as="geometry">
                        <mxPoint x="552" y="710" as="sourcePoint"/>
                        <mxPoint x="132" y="549.6650000000001" as="targetPoint"/>
                        <Array as="points">
                            <mxPoint x="488" y="711"/>
                        </Array>
                    </mxGeometry>
                </mxCell>
                <mxCell id="121" style="edgeStyle=none;html=1;exitX=0.5;exitY=1;exitDx=0;exitDy=0;entryX=0.5;entryY=0;entryDx=0;entryDy=0;fontSize=15;fontColor=#000000;endArrow=none;endFill=0;strokeColor=#000000;" parent="1" source="113" target="160" edge="1">
                    <mxGeometry relative="1" as="geometry">
                        <mxPoint x="488" y="501.9999999999999" as="targetPoint"/>
                    </mxGeometry>
                </mxCell>
                <UserObject label="&lt;font style=&quot;font-size: 15px ; line-height: 1&quot;&gt;1,1&lt;/font&gt;" lucidchartObjectId="3bly9.hPKQTv" id="113">
                    <mxCell style="html=1;overflow=block;blockSpacing=1;whiteSpace=wrap;fontSize=20.2;spacing=3.8;strokeOpacity=0;fillOpacity=100;rounded=1;absoluteArcSize=1;arcSize=9;fillColor=none;strokeWidth=2;align=center;strokeColor=#000000;fontColor=#000000;" parent="1" vertex="1">
                        <mxGeometry x="470.5" y="455" width="35" height="34" as="geometry"/>
                    </mxCell>
                </UserObject>
                <mxCell id="119" style="edgeStyle=none;html=1;exitX=0.5;exitY=0;exitDx=0;exitDy=0;entryX=0.933;entryY=0.995;entryDx=0;entryDy=0;fontSize=15;fontColor=#000000;endArrow=none;endFill=0;strokeColor=#000000;entryPerimeter=0;" parent="1" source="115" target="208" edge="1">
                    <mxGeometry relative="1" as="geometry">
                        <mxPoint x="475" y="296.5" as="targetPoint"/>
                    </mxGeometry>
                </mxCell>
                <UserObject label="&lt;font style=&quot;font-size: 15px ; line-height: 1&quot;&gt;0,N&lt;/font&gt;" lucidchartObjectId="3bly9.hPKQTv" id="115">
                    <mxCell style="html=1;overflow=block;blockSpacing=1;whiteSpace=wrap;fontSize=20.2;spacing=3.8;strokeOpacity=0;fillOpacity=100;rounded=1;absoluteArcSize=1;arcSize=9;fillColor=none;strokeWidth=2;align=center;strokeColor=#000000;fontColor=#000000;" parent="1" vertex="1">
                        <mxGeometry x="470.5" y="324" width="35" height="34" as="geometry"/>
                    </mxCell>
                </UserObject>
                <mxCell id="124" style="edgeStyle=none;html=1;exitX=0.5;exitY=0;exitDx=0;exitDy=0;entryX=0.996;entryY=0.858;entryDx=0;entryDy=0;entryPerimeter=0;fontSize=15;fontColor=#000000;endArrow=none;endFill=0;strokeColor=#000000;startArrow=none;" parent="1" source="126" target="208" edge="1">
                    <mxGeometry relative="1" as="geometry">
                        <Array as="points">
                            <mxPoint x="630" y="273"/>
                        </Array>
                        <mxPoint x="510.70000000000005" y="273.58399999999995" as="targetPoint"/>
                    </mxGeometry>
                </mxCell>
                <mxCell id="125" style="edgeStyle=none;html=1;exitX=0.5;exitY=1;exitDx=0;exitDy=0;entryX=0.011;entryY=0.056;entryDx=0;entryDy=0;entryPerimeter=0;fontSize=15;fontColor=#000000;endArrow=none;endFill=0;strokeColor=#000000;startArrow=none;" parent="1" source="129" target="176" edge="1">
                    <mxGeometry relative="1" as="geometry">
                        <Array as="points">
                            <mxPoint x="630" y="573"/>
                        </Array>
                        <mxPoint x="700.05" y="572.6389999999999" as="targetPoint"/>
                    </mxGeometry>
                </mxCell>
                <mxCell id="128" style="edgeStyle=none;html=1;exitX=0.5;exitY=1;exitDx=0;exitDy=0;entryX=0.5;entryY=0;entryDx=0;entryDy=0;fontSize=15;fontColor=#000000;endArrow=none;endFill=0;strokeColor=#000000;" parent="1" source="126" target="171" edge="1">
                    <mxGeometry relative="1" as="geometry">
                        <mxPoint x="630" y="383" as="targetPoint"/>
                    </mxGeometry>
                </mxCell>
                <UserObject label="&lt;font style=&quot;font-size: 15px ; line-height: 1&quot;&gt;0,N&lt;/font&gt;" lucidchartObjectId="3bly9.hPKQTv" id="126">
                    <mxCell style="html=1;overflow=block;blockSpacing=1;whiteSpace=wrap;fontSize=20.2;spacing=3.8;strokeOpacity=0;fillOpacity=100;rounded=1;absoluteArcSize=1;arcSize=9;fillColor=none;strokeWidth=2;align=center;strokeColor=#000000;fontColor=#000000;" parent="1" vertex="1">
                        <mxGeometry x="612.5" y="291" width="35" height="34" as="geometry"/>
                    </mxCell>
                </UserObject>
                <UserObject label="&lt;font style=&quot;font-size: 15px ; line-height: 1&quot;&gt;0,N&lt;/font&gt;" lucidchartObjectId="3bly9.hPKQTv" id="129">
                    <mxCell style="html=1;overflow=block;blockSpacing=1;whiteSpace=wrap;fontSize=20.2;spacing=3.8;strokeOpacity=0;fillOpacity=100;rounded=1;absoluteArcSize=1;arcSize=9;fillColor=none;strokeWidth=2;align=center;strokeColor=#000000;fontColor=#000000;" parent="1" vertex="1">
                        <mxGeometry x="612.5" y="494" width="35" height="34" as="geometry"/>
                    </mxCell>
                </UserObject>
                <mxCell id="130" value="" style="edgeStyle=none;html=1;exitX=0.5;exitY=1;exitDx=0;exitDy=0;entryX=0.5;entryY=0;entryDx=0;entryDy=0;fontSize=15;fontColor=#000000;endArrow=none;endFill=0;strokeColor=#000000;" parent="1" source="172" target="129" edge="1">
                    <mxGeometry relative="1" as="geometry">
                        <mxPoint x="630" y="449" as="sourcePoint"/>
                        <mxPoint x="719.05" y="593.6390000000001" as="targetPoint"/>
                        <Array as="points"/>
                    </mxGeometry>
                </mxCell>
                <mxCell id="135" value="" style="edgeStyle=none;html=1;fontSize=15;fontColor=#000000;endArrow=none;endFill=0;strokeColor=#000000;exitX=1;exitY=0.5;exitDx=0;exitDy=0;entryX=0.005;entryY=0.815;entryDx=0;entryDy=0;entryPerimeter=0;" parent="1" source="109" target="176" edge="1">
                    <mxGeometry relative="1" as="geometry">
                        <mxPoint x="644.4499999999998" y="719" as="sourcePoint"/>
                        <mxPoint x="702.3" y="709.9739999999999" as="targetPoint"/>
                    </mxGeometry>
                </mxCell>
                <mxCell id="139" style="edgeStyle=none;html=1;exitX=0.5;exitY=1;exitDx=0;exitDy=0;entryX=0.5;entryY=0;entryDx=0;entryDy=0;fontSize=15;fontColor=#000000;endArrow=none;endFill=0;strokeColor=#000000;" parent="1" target="113" edge="1">
                    <mxGeometry relative="1" as="geometry">
                        <mxPoint x="488" y="430" as="sourcePoint"/>
                        <mxPoint x="461" y="615" as="targetPoint"/>
                    </mxGeometry>
                </mxCell>
                <UserObject label="&lt;font style=&quot;font-size: 15px ; line-height: 1&quot;&gt;0,N&lt;/font&gt;" lucidchartObjectId="3bly9.hPKQTv" id="142">
                    <mxCell style="html=1;overflow=block;blockSpacing=1;whiteSpace=wrap;fontSize=20.2;spacing=3.8;strokeOpacity=0;fillOpacity=100;rounded=1;absoluteArcSize=1;arcSize=35;fillColor=none;strokeWidth=2;align=center;strokeColor=#000000;fontColor=#000000;" parent="1" vertex="1">
                        <mxGeometry x="353" y="447" width="35" height="34" as="geometry"/>
                    </mxCell>
                </UserObject>
                <mxCell id="144" style="edgeStyle=none;html=1;exitX=1;exitY=0.5;exitDx=0;exitDy=0;entryX=0;entryY=0.5;entryDx=0;entryDy=0;fontSize=15;fontColor=#000000;endArrow=none;endFill=0;strokeColor=#000000;" parent="1" source="200" target="142" edge="1">
                    <mxGeometry relative="1" as="geometry">
                        <mxPoint x="214.4499999999996" y="464" as="sourcePoint"/>
                        <mxPoint x="338" y="464.0000000000001" as="targetPoint"/>
                    </mxGeometry>
                </mxCell>
                <mxCell id="145" style="edgeStyle=none;html=1;exitX=0.358;exitY=1.005;exitDx=0;exitDy=0;entryX=1;entryY=0.5;entryDx=0;entryDy=0;fontSize=15;fontColor=#000000;endArrow=none;endFill=0;strokeColor=#000000;exitPerimeter=0;" parent="1" source="208" target="142" edge="1">
                    <mxGeometry relative="1" as="geometry">
                        <mxPoint x="425.88300000000004" y="297.3175000000001" as="sourcePoint"/>
                        <mxPoint x="409.0000000000002" y="464" as="targetPoint"/>
                        <Array as="points">
                            <mxPoint x="415" y="464"/>
                        </Array>
                    </mxGeometry>
                </mxCell>
                <mxCell id="146" style="edgeStyle=none;html=1;exitX=0;exitY=0.5;exitDx=0;exitDy=0;fontSize=15;fontColor=#000000;endArrow=none;endFill=0;strokeColor=#000000;entryX=1;entryY=0.5;entryDx=0;entryDy=0;" parent="1" source="200" target="147" edge="1">
                    <mxGeometry relative="1" as="geometry">
                        <mxPoint x="149.00000000000023" y="464" as="sourcePoint"/>
                        <mxPoint x="112" y="464" as="targetPoint"/>
                    </mxGeometry>
                </mxCell>
                <UserObject label="&lt;font style=&quot;font-size: 15px ; line-height: 1&quot;&gt;1,1&lt;/font&gt;" lucidchartObjectId="3bly9.hPKQTv" id="147">
                    <mxCell style="html=1;overflow=block;blockSpacing=1;whiteSpace=wrap;fontSize=20.2;spacing=3.8;strokeOpacity=0;fillOpacity=100;rounded=1;absoluteArcSize=1;arcSize=35;fillColor=none;strokeWidth=2;align=center;strokeColor=#000000;fontColor=#000000;" parent="1" vertex="1">
                        <mxGeometry x="174" y="447" width="35" height="34" as="geometry"/>
                    </mxCell>
                </UserObject>
                <mxCell id="148" style="edgeStyle=none;html=1;exitX=0;exitY=0.5;exitDx=0;exitDy=0;fontSize=15;fontColor=#000000;endArrow=none;endFill=0;strokeColor=#000000;entryX=0.75;entryY=0;entryDx=0;entryDy=0;" parent="1" source="147" target="158" edge="1">
                    <mxGeometry relative="1" as="geometry">
                        <mxPoint x="166.99999999999875" y="402" as="sourcePoint"/>
                        <mxPoint x="35" y="497.5" as="targetPoint"/>
                        <Array as="points">
                            <mxPoint x="146" y="464"/>
                        </Array>
                    </mxGeometry>
                </mxCell>
                <UserObject label="&lt;font style=&quot;font-size: 15px ; line-height: 1&quot;&gt;1,N&lt;/font&gt;" lucidchartObjectId="3bly9.hPKQTv" id="151">
                    <mxCell style="html=1;overflow=block;blockSpacing=1;whiteSpace=wrap;fontSize=20.2;spacing=3.8;strokeOpacity=0;fillOpacity=100;rounded=1;absoluteArcSize=1;arcSize=9;fillColor=none;strokeWidth=2;align=center;strokeColor=#000000;fontColor=#000000;" parent="1" vertex="1">
                        <mxGeometry x="191" y="537" width="35" height="34" as="geometry"/>
                    </mxCell>
                </UserObject>
                <UserObject label="&lt;font style=&quot;font-size: 15px ; line-height: 1&quot;&gt;0,N&lt;/font&gt;" lucidchartObjectId="3bly9.hPKQTv" id="152">
                    <mxCell style="html=1;overflow=block;blockSpacing=1;whiteSpace=wrap;fontSize=20.2;spacing=3.8;strokeOpacity=0;fillOpacity=100;rounded=1;absoluteArcSize=1;arcSize=35;fillColor=none;strokeWidth=2;align=center;strokeColor=#000000;fontColor=#000000;" parent="1" vertex="1">
                        <mxGeometry x="379" y="537" width="35" height="34" as="geometry"/>
                    </mxCell>
                </UserObject>
                <mxCell id="154" style="edgeStyle=none;html=1;entryX=1;entryY=0.5;entryDx=0;entryDy=0;fontSize=15;fontColor=#000000;endArrow=none;endFill=0;strokeColor=#000000;startArrow=none;exitX=0.004;exitY=0.173;exitDx=0;exitDy=0;exitPerimeter=0;" parent="1" source="161" target="152" edge="1">
                    <mxGeometry relative="1" as="geometry">
                        <mxPoint x="385" y="554" as="sourcePoint"/>
                        <mxPoint x="437" y="613.608" as="targetPoint"/>
                    </mxGeometry>
                </mxCell>
                <mxCell id="155" style="edgeStyle=none;html=1;entryX=0;entryY=0.5;entryDx=0;entryDy=0;fontSize=15;fontColor=#000000;endArrow=none;endFill=0;strokeColor=#000000;startArrow=none;exitX=1;exitY=0.25;exitDx=0;exitDy=0;" parent="1" source="167" target="152" edge="1">
                    <mxGeometry relative="1" as="geometry">
                        <mxPoint x="278" y="554" as="sourcePoint"/>
                        <mxPoint x="356" y="554.0000000000002" as="targetPoint"/>
                    </mxGeometry>
                </mxCell>
                <mxCell id="156" style="edgeStyle=none;html=1;exitX=0.999;exitY=0.189;exitDx=0;exitDy=0;entryX=0;entryY=0.5;entryDx=0;entryDy=0;fontSize=15;fontColor=#000000;endArrow=none;endFill=0;strokeColor=#000000;startArrow=none;exitPerimeter=0;" parent="1" source="159" target="151" edge="1">
                    <mxGeometry relative="1" as="geometry">
                        <mxPoint x="94.95000000000005" y="548.6600000000001" as="sourcePoint"/>
                        <mxPoint x="436" y="613.6080000000002" as="targetPoint"/>
                    </mxGeometry>
                </mxCell>
                <mxCell id="157" style="edgeStyle=none;html=1;entryX=1;entryY=0.5;entryDx=0;entryDy=0;fontSize=15;fontColor=#000000;endArrow=none;endFill=0;strokeColor=#000000;startArrow=none;exitX=0;exitY=0.25;exitDx=0;exitDy=0;" parent="1" source="167" target="151" edge="1">
                    <mxGeometry relative="1" as="geometry">
                        <mxPoint x="128" y="554" as="sourcePoint"/>
                        <mxPoint x="93" y="553" as="targetPoint"/>
                    </mxGeometry>
                </mxCell>
                <mxCell id="158" value="MATCH" style="swimlane;childLayout=stackLayout;horizontal=1;startSize=30;horizontalStack=0;rounded=1;fontSize=14;fontStyle=0;strokeWidth=2;resizeParent=0;resizeLast=1;shadow=0;dashed=0;align=center;fillColor=#1ba1e2;fontColor=#ffffff;strokeColor=none;swimlaneLine=0;" parent="1" vertex="1">
                    <mxGeometry x="70.5" y="513" width="101" height="89" as="geometry">
                        <mxRectangle x="206" y="605" width="76" height="30" as="alternateBounds"/>
                    </mxGeometry>
                </mxCell>
                <mxCell id="159" value="code match&#10;note" style="align=center;strokeColor=none;fillColor=#cce5ff;spacingLeft=4;fontSize=12;verticalAlign=middle;resizable=0;rotatable=0;part=1;fontColor=#000000;" parent="158" vertex="1">
                    <mxGeometry y="30" width="101" height="59" as="geometry"/>
                </mxCell>
                <mxCell id="160" value="TEAM" style="swimlane;childLayout=stackLayout;horizontal=1;startSize=30;horizontalStack=0;rounded=1;fontSize=14;fontStyle=0;strokeWidth=2;resizeParent=0;resizeLast=1;shadow=0;dashed=0;align=center;fillColor=#1ba1e2;fontColor=#ffffff;strokeColor=none;swimlaneLine=0;" parent="1" vertex="1">
                    <mxGeometry x="437.5" y="516" width="101" height="75" as="geometry">
                        <mxRectangle x="206" y="605" width="76" height="30" as="alternateBounds"/>
                    </mxGeometry>
                </mxCell>
                <mxCell id="161" value="code team" style="align=center;strokeColor=none;fillColor=#cce5ff;spacingLeft=4;fontSize=12;verticalAlign=middle;resizable=0;rotatable=0;part=1;fontColor=#000000;" parent="160" vertex="1">
                    <mxGeometry y="30" width="101" height="45" as="geometry"/>
                </mxCell>
                <mxCell id="166" value="PLAY" style="swimlane;childLayout=stackLayout;horizontal=1;startSize=30;horizontalStack=0;rounded=1;fontSize=14;fontStyle=0;strokeWidth=2;resizeParent=0;resizeLast=1;shadow=0;dashed=0;align=center;fillColor=#fad9d5;strokeColor=none;swimlaneLine=0;fontColor=#000000;" parent="1" vertex="1">
                    <mxGeometry x="244" y="514" width="113" height="69.5" as="geometry">
                        <mxRectangle x="206" y="605" width="76" height="30" as="alternateBounds"/>
                    </mxGeometry>
                </mxCell>
                <mxCell id="167" value="is winner" style="align=center;strokeColor=none;fillColor=#ffcccc;spacingLeft=4;fontSize=12;verticalAlign=middle;resizable=0;rotatable=0;part=1;fontColor=#000000;" parent="166" vertex="1">
                    <mxGeometry y="30" width="113" height="39.5" as="geometry"/>
                </mxCell>
                <mxCell id="169" value="BELONGS" style="swimlane;childLayout=stackLayout;horizontal=1;startSize=30;horizontalStack=0;rounded=1;fontSize=14;fontStyle=0;strokeWidth=2;resizeParent=0;resizeLast=1;shadow=0;dashed=0;align=center;fillColor=#fad9d5;strokeColor=none;swimlaneLine=0;fontColor=#000000;" parent="1" vertex="1">
                    <mxGeometry x="519" y="680" width="113" height="58" as="geometry">
                        <mxRectangle x="206" y="605" width="76" height="30" as="alternateBounds"/>
                    </mxGeometry>
                </mxCell>
                <mxCell id="170" value="" style="align=center;strokeColor=none;fillColor=#ffcccc;spacingLeft=4;fontSize=12;verticalAlign=top;resizable=0;rotatable=0;part=1;fontColor=#000000;" parent="169" vertex="1">
                    <mxGeometry y="30" width="113" height="28" as="geometry"/>
                </mxCell>
                <mxCell id="171" value="MANAGE" style="swimlane;childLayout=stackLayout;horizontal=1;startSize=30;horizontalStack=0;rounded=1;fontSize=14;fontStyle=0;strokeWidth=2;resizeParent=0;resizeLast=1;shadow=0;dashed=0;align=center;fillColor=#fad9d5;strokeColor=none;swimlaneLine=0;fontColor=#000000;" parent="1" vertex="1">
                    <mxGeometry x="581" y="387" width="98" height="58" as="geometry">
                        <mxRectangle x="206" y="605" width="76" height="30" as="alternateBounds"/>
                    </mxGeometry>
                </mxCell>
                <mxCell id="172" value="" style="align=center;strokeColor=none;fillColor=#ffcccc;spacingLeft=4;fontSize=12;verticalAlign=top;resizable=0;rotatable=0;part=1;fontColor=#000000;" parent="171" vertex="1">
                    <mxGeometry y="30" width="98" height="28" as="geometry"/>
                </mxCell>
                <mxCell id="175" value="USER" style="swimlane;childLayout=stackLayout;horizontal=1;startSize=30;horizontalStack=0;rounded=1;fontSize=14;fontStyle=0;strokeWidth=2;resizeParent=0;resizeLast=1;shadow=0;dashed=0;align=center;fillColor=#1ba1e2;fontColor=#ffffff;strokeColor=none;swimlaneLine=0;" parent="1" vertex="1">
                    <mxGeometry x="716.23" y="532.5" width="121.55" height="211" as="geometry">
                        <mxRectangle x="206" y="605" width="76" height="30" as="alternateBounds"/>
                    </mxGeometry>
                </mxCell>
                <mxCell id="176" value="code user&#10;firstname&#10;lastname&#10;address&#10;birthdate&#10;phone&#10;email&#10;is active&#10;password&#10;url avatar&#10;player license" style="align=center;strokeColor=none;fillColor=#cce5ff;spacingLeft=4;fontSize=12;verticalAlign=middle;resizable=0;rotatable=0;part=1;fontColor=#000000;" parent="175" vertex="1">
                    <mxGeometry y="30" width="121.55" height="181" as="geometry"/>
                </mxCell>
                <mxCell id="177" value="ROLE" style="swimlane;childLayout=stackLayout;horizontal=1;startSize=30;horizontalStack=0;rounded=1;fontSize=14;fontStyle=0;strokeWidth=2;resizeParent=0;resizeLast=1;shadow=0;dashed=0;align=center;fillColor=#1ba1e2;fontColor=#ffffff;strokeColor=none;swimlaneLine=0;" parent="1" vertex="1">
                    <mxGeometry x="896" y="402.5" width="101" height="80" as="geometry">
                        <mxRectangle x="206" y="605" width="76" height="30" as="alternateBounds"/>
                    </mxGeometry>
                </mxCell>
                <mxCell id="178" value="code role&#10;name" style="align=center;strokeColor=none;fillColor=#cce5ff;spacingLeft=4;fontSize=12;verticalAlign=middle;resizable=0;rotatable=0;part=1;fontColor=#000000;" parent="177" vertex="1">
                    <mxGeometry y="30" width="101" height="50" as="geometry"/>
                </mxCell>
                <mxCell id="179" value="ACCESS" style="ellipse;whiteSpace=wrap;html=1;align=center;rounded=1;fontSize=15;fillColor=#ffcccc;strokeColor=none;fontColor=#000000;" parent="1" vertex="1">
                    <mxGeometry x="909" y="559" width="75" height="40" as="geometry"/>
                </mxCell>
                <mxCell id="180" value="" style="edgeStyle=none;html=1;exitX=0.5;exitY=0;exitDx=0;exitDy=0;entryX=0.5;entryY=1;entryDx=0;entryDy=0;fontSize=15;fontColor=#000000;endArrow=none;endFill=0;strokeColor=#000000;startArrow=none;" parent="1" source="179" target="96" edge="1">
                    <mxGeometry relative="1" as="geometry">
                        <mxPoint x="900" y="589" as="sourcePoint"/>
                        <mxPoint x="914.9999999999993" y="589" as="targetPoint"/>
                        <Array as="points"/>
                    </mxGeometry>
                </mxCell>
                <mxCell id="181" value="" style="edgeStyle=none;html=1;entryX=0.5;entryY=0;entryDx=0;entryDy=0;fontSize=15;fontColor=#000000;endArrow=none;endFill=0;strokeColor=#000000;startArrow=none;exitX=0.5;exitY=1;exitDx=0;exitDy=0;" parent="1" source="177" target="96" edge="1">
                    <mxGeometry relative="1" as="geometry">
                        <mxPoint x="1007" y="579" as="sourcePoint"/>
                        <mxPoint x="970" y="589" as="targetPoint"/>
                        <Array as="points"/>
                    </mxGeometry>
                </mxCell>
                <mxCell id="191" value="TYPE" style="swimlane;childLayout=stackLayout;horizontal=1;startSize=30;horizontalStack=0;rounded=1;fontSize=14;fontStyle=0;strokeWidth=2;resizeParent=0;resizeLast=1;shadow=0;dashed=0;align=center;fillColor=#1ba1e2;fontColor=#ffffff;strokeColor=none;swimlaneLine=0;" parent="1" vertex="1">
                    <mxGeometry x="21.5" y="234" width="101" height="71" as="geometry">
                        <mxRectangle x="206" y="605" width="76" height="30" as="alternateBounds"/>
                    </mxGeometry>
                </mxCell>
                <mxCell id="192" value="code type&#10;name" style="align=center;strokeColor=none;fillColor=#cce5ff;spacingLeft=4;fontSize=12;verticalAlign=middle;resizable=0;rotatable=0;part=1;fontColor=#000000;" parent="191" vertex="1">
                    <mxGeometry y="30" width="101" height="41" as="geometry"/>
                </mxCell>
                <mxCell id="194" value="DISCIPLINE" style="swimlane;childLayout=stackLayout;horizontal=1;startSize=30;horizontalStack=0;rounded=1;fontSize=14;fontStyle=0;strokeWidth=2;resizeParent=0;resizeLast=1;shadow=0;dashed=0;align=center;fillColor=#1ba1e2;fontColor=#ffffff;strokeColor=none;swimlaneLine=0;verticalAlign=middle;" parent="1" vertex="1">
                    <mxGeometry x="21.5" y="97" width="101" height="71" as="geometry">
                        <mxRectangle x="206" y="605" width="76" height="30" as="alternateBounds"/>
                    </mxGeometry>
                </mxCell>
                <mxCell id="195" value="code discipline&#10;name" style="align=center;strokeColor=none;fillColor=#cce5ff;spacingLeft=4;fontSize=12;verticalAlign=middle;resizable=0;rotatable=0;part=1;fontColor=#000000;" parent="194" vertex="1">
                    <mxGeometry y="30" width="101" height="41" as="geometry"/>
                </mxCell>
                <mxCell id="196" value="HAS" style="ellipse;whiteSpace=wrap;html=1;align=center;rounded=1;fontSize=15;fillColor=#ffcccc;strokeColor=none;fontColor=#000000;" parent="1" vertex="1">
                    <mxGeometry x="226.45" y="250" width="43" height="40" as="geometry"/>
                </mxCell>
                <mxCell id="198" value="HAS" style="ellipse;whiteSpace=wrap;html=1;align=center;rounded=1;fontSize=15;fillColor=#ffcccc;strokeColor=none;fontColor=#000000;" parent="1" vertex="1">
                    <mxGeometry x="226.45" y="112" width="43" height="40" as="geometry"/>
                </mxCell>
                <mxCell id="200" value="GENERATE" style="ellipse;whiteSpace=wrap;html=1;align=center;rounded=1;fontSize=15;fillColor=#ffcccc;strokeColor=none;fontColor=#000000;" parent="1" vertex="1">
                    <mxGeometry x="233" y="444" width="97" height="40" as="geometry"/>
                </mxCell>
                <mxCell id="201" value="PARTICIPATE" style="ellipse;whiteSpace=wrap;html=1;align=center;rounded=1;fontSize=15;fillColor=#ffcccc;strokeColor=none;fontColor=#000000;" parent="1" vertex="1">
                    <mxGeometry x="434" y="390" width="110" height="40" as="geometry"/>
                </mxCell>
                <mxCell id="202" value="REGISTER" style="ellipse;whiteSpace=wrap;html=1;align=center;rounded=1;fontSize=15;fillColor=#ffcccc;strokeColor=none;fontColor=#000000;" parent="1" vertex="1">
                    <mxGeometry x="726" y="396" width="102" height="40" as="geometry"/>
                </mxCell>
                <mxCell id="203" value="ORGANIZE" style="ellipse;whiteSpace=wrap;html=1;align=center;rounded=1;fontSize=15;fillColor=#ffcccc;strokeColor=none;fontColor=#000000;" parent="1" vertex="1">
                    <mxGeometry x="558" y="150" width="94" height="40" as="geometry"/>
                </mxCell>
                <mxCell id="204" value="CLUB" style="swimlane;childLayout=stackLayout;horizontal=1;startSize=30;horizontalStack=0;rounded=1;fontSize=14;fontStyle=0;strokeWidth=2;resizeParent=0;resizeLast=1;shadow=0;dashed=0;align=center;fillColor=#1ba1e2;fontColor=#ffffff;strokeColor=none;swimlaneLine=0;" parent="1" vertex="1">
                    <mxGeometry x="716.23" y="90" width="121.55" height="211" as="geometry">
                        <mxRectangle x="206" y="605" width="76" height="30" as="alternateBounds"/>
                    </mxGeometry>
                </mxCell>
                <mxCell id="205" value="code club&#10;name&#10;address&#10;phone&#10;email&#10;logo url&#10;website&#10;club ref&#10;description" style="align=center;strokeColor=none;fillColor=#cce5ff;spacingLeft=4;fontSize=12;verticalAlign=middle;resizable=0;rotatable=0;part=1;fontColor=#000000;" parent="204" vertex="1">
                    <mxGeometry y="30" width="121.55" height="181" as="geometry"/>
                </mxCell>
                <mxCell id="207" value="TOURNAMENT" style="swimlane;childLayout=stackLayout;horizontal=1;startSize=30;horizontalStack=0;rounded=1;fontSize=14;fontStyle=0;strokeWidth=2;resizeParent=0;resizeLast=1;shadow=0;dashed=0;align=center;fillColor=#1ba1e2;fontColor=#ffffff;strokeColor=none;swimlaneLine=0;verticalAlign=middle;" parent="1" vertex="1">
                    <mxGeometry x="369.5" y="103" width="127" height="193.5" as="geometry">
                        <mxRectangle x="206" y="605" width="76" height="30" as="alternateBounds"/>
                    </mxGeometry>
                </mxCell>
                <mxCell id="208" value="code tournament&#10;title&#10;date&#10;description&#10;picture url&#10;nb playground&#10;player limit" style="align=center;strokeColor=none;fillColor=#cce5ff;spacingLeft=4;fontSize=12;verticalAlign=middle;resizable=0;rotatable=0;part=1;fontColor=#000000;" parent="207" vertex="1">
                    <mxGeometry y="30" width="127" height="163.5" as="geometry"/>
                </mxCell>
                <mxCell id="209" style="edgeStyle=none;html=1;exitX=0.5;exitY=0;exitDx=0;exitDy=0;entryX=0.5;entryY=1;entryDx=0;entryDy=0;fontSize=15;fontColor=#000000;endArrow=none;endFill=0;strokeColor=#000000;" parent="1" target="115" edge="1">
                    <mxGeometry relative="1" as="geometry">
                        <mxPoint x="498" y="306.5" as="targetPoint"/>
                        <mxPoint x="488" y="390" as="sourcePoint"/>
                    </mxGeometry>
                </mxCell>
                <mxCell id="210" value="STATE" style="swimlane;childLayout=stackLayout;horizontal=1;startSize=30;horizontalStack=0;rounded=1;fontSize=14;fontStyle=0;strokeWidth=2;resizeParent=0;resizeLast=1;shadow=0;dashed=0;align=center;fillColor=#1ba1e2;fontColor=#ffffff;strokeColor=none;swimlaneLine=0;" parent="1" vertex="1">
                    <mxGeometry x="161" y="337" width="93" height="74" as="geometry">
                        <mxRectangle x="209" y="337" width="76" height="30" as="alternateBounds"/>
                    </mxGeometry>
                </mxCell>
                <mxCell id="211" value="code state&#10;name" style="align=center;strokeColor=none;fillColor=#cce5ff;spacingLeft=4;fontSize=12;verticalAlign=middle;resizable=0;rotatable=0;part=1;fontColor=#000000;" parent="210" vertex="1">
                    <mxGeometry y="30" width="93" height="44" as="geometry"/>
                </mxCell>
                <mxCell id="216" value="IS" style="ellipse;whiteSpace=wrap;html=1;align=center;rounded=1;fontSize=15;fillColor=#ffcccc;strokeColor=none;fontColor=#000000;" parent="1" vertex="1">
                    <mxGeometry x="74" y="403" width="43" height="40" as="geometry"/>
                </mxCell>
                <UserObject label="&lt;font style=&quot;font-size: 15px ; line-height: 1&quot;&gt;1,1&lt;/font&gt;" lucidchartObjectId="3bly9.hPKQTv" id="217">
                    <mxCell style="html=1;overflow=block;blockSpacing=1;whiteSpace=wrap;fontSize=20.2;spacing=3.8;strokeOpacity=0;fillOpacity=100;rounded=1;absoluteArcSize=1;arcSize=35;fillColor=none;strokeWidth=2;align=center;strokeColor=#000000;fontColor=#000000;" parent="1" vertex="1">
                        <mxGeometry x="78" y="465" width="35" height="34" as="geometry"/>
                    </mxCell>
                </UserObject>
                <UserObject label="&lt;font style=&quot;font-size: 15px ; line-height: 1&quot;&gt;0,N&lt;/font&gt;" lucidchartObjectId="3bly9.hPKQTv" id="218">
                    <mxCell style="html=1;overflow=block;blockSpacing=1;whiteSpace=wrap;fontSize=20.2;spacing=3.8;strokeOpacity=0;fillOpacity=100;rounded=1;absoluteArcSize=1;arcSize=35;fillColor=none;strokeWidth=2;align=center;strokeColor=#000000;fontColor=#000000;" parent="1" vertex="1">
                        <mxGeometry x="110" y="357" width="35" height="34" as="geometry"/>
                    </mxCell>
                </UserObject>
                <mxCell id="219" style="edgeStyle=none;html=1;exitX=0.5;exitY=1;exitDx=0;exitDy=0;fontSize=15;fontColor=#000000;endArrow=none;endFill=0;strokeColor=#000000;entryX=0.25;entryY=0;entryDx=0;entryDy=0;" parent="1" source="217" target="158" edge="1">
                    <mxGeometry relative="1" as="geometry">
                        <mxPoint x="272.9999999999952" y="474" as="sourcePoint"/>
                        <mxPoint x="238.9999999999999" y="474" as="targetPoint"/>
                    </mxGeometry>
                </mxCell>
                <mxCell id="220" style="edgeStyle=none;html=1;exitX=0.5;exitY=1;exitDx=0;exitDy=0;fontSize=15;fontColor=#000000;endArrow=none;endFill=0;strokeColor=#000000;entryX=0.5;entryY=0;entryDx=0;entryDy=0;" parent="1" source="216" target="217" edge="1">
                    <mxGeometry relative="1" as="geometry">
                        <mxPoint x="105.5" y="509" as="sourcePoint"/>
                        <mxPoint x="105.75000000000011" y="526" as="targetPoint"/>
                    </mxGeometry>
                </mxCell>
                <mxCell id="221" style="edgeStyle=none;html=1;exitX=0;exitY=0.5;exitDx=0;exitDy=0;fontSize=15;fontColor=#000000;endArrow=none;endFill=0;strokeColor=#000000;entryX=0.5;entryY=0;entryDx=0;entryDy=0;" parent="1" source="218" target="216" edge="1">
                    <mxGeometry relative="1" as="geometry">
                        <mxPoint x="105.5" y="454" as="sourcePoint"/>
                        <mxPoint x="105.5" y="474.9999999999999" as="targetPoint"/>
                        <Array as="points">
                            <mxPoint x="96" y="374"/>
                        </Array>
                    </mxGeometry>
                </mxCell>
                <mxCell id="222" style="edgeStyle=none;html=1;exitX=0;exitY=0.5;exitDx=0;exitDy=0;fontSize=15;fontColor=#000000;endArrow=none;endFill=0;strokeColor=#000000;entryX=1;entryY=0.5;entryDx=0;entryDy=0;" parent="1" source="210" target="218" edge="1">
                    <mxGeometry relative="1" as="geometry">
                        <mxPoint x="130" y="384" as="sourcePoint"/>
                        <mxPoint x="105.5" y="414" as="targetPoint"/>
                    </mxGeometry>
                </mxCell>
                <mxCell id="224" style="edgeStyle=none;html=1;exitX=0;exitY=0.5;exitDx=0;exitDy=0;fontSize=15;fontColor=#000000;endArrow=none;endFill=0;strokeColor=#000000;entryX=1;entryY=0.5;entryDx=0;entryDy=0;" parent="1" source="228" target="210" edge="1">
                    <mxGeometry relative="1" as="geometry">
                        <mxPoint x="264" y="374" as="sourcePoint"/>
                        <mxPoint x="165" y="384" as="targetPoint"/>
                    </mxGeometry>
                </mxCell>
                <mxCell id="225" value="IS" style="ellipse;whiteSpace=wrap;html=1;align=center;rounded=1;fontSize=15;fillColor=#ffcccc;strokeColor=none;fontColor=#000000;" parent="1" vertex="1">
                    <mxGeometry x="326" y="354" width="43" height="40" as="geometry"/>
                </mxCell>
                <mxCell id="226" style="edgeStyle=none;html=1;exitX=0;exitY=0.5;exitDx=0;exitDy=0;fontSize=15;fontColor=#000000;endArrow=none;endFill=0;strokeColor=#000000;entryX=1;entryY=0.5;entryDx=0;entryDy=0;" parent="1" source="225" target="228" edge="1">
                    <mxGeometry relative="1" as="geometry">
                        <mxPoint x="298" y="384" as="sourcePoint"/>
                        <mxPoint x="322" y="374" as="targetPoint"/>
                    </mxGeometry>
                </mxCell>
                <mxCell id="227" style="edgeStyle=none;html=1;exitX=0.5;exitY=1;exitDx=0;exitDy=0;fontSize=15;fontColor=#000000;endArrow=none;endFill=0;strokeColor=#000000;entryX=1;entryY=0.5;entryDx=0;entryDy=0;" parent="1" source="229" target="225" edge="1">
                    <mxGeometry relative="1" as="geometry">
                        <mxPoint x="313" y="384" as="sourcePoint"/>
                        <mxPoint x="385" y="391" as="targetPoint"/>
                        <Array as="points">
                            <mxPoint x="393" y="374"/>
                        </Array>
                    </mxGeometry>
                </mxCell>
                <UserObject label="&lt;font style=&quot;font-size: 15px ; line-height: 1&quot;&gt;0,N&lt;/font&gt;" lucidchartObjectId="3bly9.hPKQTv" id="228">
                    <mxCell style="html=1;overflow=block;blockSpacing=1;whiteSpace=wrap;fontSize=20.2;spacing=3.8;strokeOpacity=0;fillOpacity=100;rounded=1;absoluteArcSize=1;arcSize=35;fillColor=none;strokeWidth=2;align=center;strokeColor=#000000;fontColor=#000000;" parent="1" vertex="1">
                        <mxGeometry x="273.22" y="357" width="35" height="34" as="geometry"/>
                    </mxCell>
                </UserObject>
                <UserObject label="&lt;font style=&quot;font-size: 15px ; line-height: 1&quot;&gt;1,1&lt;/font&gt;" lucidchartObjectId="3bly9.hPKQTv" id="229">
                    <mxCell style="html=1;overflow=block;blockSpacing=1;whiteSpace=wrap;fontSize=20.2;spacing=3.8;strokeOpacity=0;fillOpacity=100;rounded=1;absoluteArcSize=1;arcSize=35;fillColor=none;strokeWidth=2;align=center;strokeColor=#000000;fontColor=#000000;" parent="1" vertex="1">
                        <mxGeometry x="376" y="315" width="35" height="34" as="geometry"/>
                    </mxCell>
                </UserObject>
                <mxCell id="230" style="edgeStyle=none;html=1;exitX=0.5;exitY=0;exitDx=0;exitDy=0;fontSize=15;fontColor=#000000;endArrow=none;endFill=0;strokeColor=#000000;entryX=0.25;entryY=1;entryDx=0;entryDy=0;" parent="1" source="229" edge="1">
                    <mxGeometry relative="1" as="geometry">
                        <mxPoint x="393.2499999999998" y="296.4999999999999" as="targetPoint"/>
                        <mxPoint x="477" y="400" as="sourcePoint"/>
                    </mxGeometry>
                </mxCell>
                <mxCell id="231" value="" style="edgeStyle=none;html=1;exitX=1;exitY=0.5;exitDx=0;exitDy=0;entryX=0;entryY=0.5;entryDx=0;entryDy=0;fontSize=15;fontColor=#000000;endArrow=none;endFill=0;strokeColor=#000000;startArrow=none;" parent="1" source="232" target="234" edge="1">
                    <mxGeometry relative="1" as="geometry">
                        <mxPoint x="852" y="625.5" as="sourcePoint"/>
                        <mxPoint x="917.0000000000025" y="697" as="targetPoint"/>
                        <Array as="points"/>
                    </mxGeometry>
                </mxCell>
                <UserObject label="&lt;font style=&quot;font-size: 15px ; line-height: 1&quot;&gt;1,1&lt;/font&gt;" lucidchartObjectId="3bly9.hPKQTv" id="232">
                    <mxCell style="html=1;overflow=block;blockSpacing=1;whiteSpace=wrap;fontSize=20.2;spacing=3.8;strokeOpacity=0;fillOpacity=100;rounded=1;absoluteArcSize=1;arcSize=9;fillColor=none;strokeWidth=2;align=center;strokeColor=#000000;fontColor=#000000;" parent="1" vertex="1">
                        <mxGeometry x="856" y="680" width="35" height="34" as="geometry"/>
                    </mxCell>
                </UserObject>
                <mxCell id="233" value="" style="edgeStyle=none;html=1;exitX=0.994;exitY=0.811;exitDx=0;exitDy=0;entryX=0;entryY=0.5;entryDx=0;entryDy=0;fontSize=15;fontColor=#000000;endArrow=none;endFill=0;strokeColor=#000000;exitPerimeter=0;" parent="1" target="232" edge="1">
                    <mxGeometry relative="1" as="geometry">
                        <mxPoint x="837.0507" y="697.2909999999999" as="sourcePoint"/>
                        <mxPoint x="941.9999999999925" y="706" as="targetPoint"/>
                        <Array as="points"/>
                    </mxGeometry>
                </mxCell>
                <mxCell id="234" value="TO BE" style="ellipse;whiteSpace=wrap;html=1;align=center;rounded=1;fontSize=15;fillColor=#ffcccc;strokeColor=none;fontColor=#000000;" parent="1" vertex="1">
                    <mxGeometry x="909" y="677" width="75" height="40" as="geometry"/>
                </mxCell>
                <mxCell id="235" value="GENDER" style="swimlane;childLayout=stackLayout;horizontal=1;startSize=30;horizontalStack=0;rounded=1;fontSize=14;fontStyle=0;strokeWidth=2;resizeParent=0;resizeLast=1;shadow=0;dashed=0;align=center;fillColor=#1ba1e2;fontColor=#ffffff;strokeColor=none;swimlaneLine=0;" parent="1" vertex="1">
                    <mxGeometry x="1057" y="656" width="101" height="80" as="geometry">
                        <mxRectangle x="206" y="605" width="76" height="30" as="alternateBounds"/>
                    </mxGeometry>
                </mxCell>
                <mxCell id="236" value="code gender&#10;name" style="align=center;strokeColor=none;fillColor=#cce5ff;spacingLeft=4;fontSize=12;verticalAlign=middle;resizable=0;rotatable=0;part=1;fontColor=#000000;" parent="235" vertex="1">
                    <mxGeometry y="30" width="101" height="50" as="geometry"/>
                </mxCell>
                <mxCell id="237" value="" style="edgeStyle=none;html=1;exitX=1;exitY=0.5;exitDx=0;exitDy=0;fontSize=15;fontColor=#000000;endArrow=none;endFill=0;strokeColor=#000000;startArrow=none;entryX=-0.003;entryY=0.215;entryDx=0;entryDy=0;entryPerimeter=0;" parent="1" source="238" target="236" edge="1">
                    <mxGeometry relative="1" as="geometry">
                        <mxPoint x="998.95" y="625.5" as="sourcePoint"/>
                        <mxPoint x="1059" y="697" as="targetPoint"/>
                        <Array as="points"/>
                    </mxGeometry>
                </mxCell>
                <UserObject label="&lt;font style=&quot;font-size: 15px ; line-height: 1&quot;&gt;0,N&lt;/font&gt;" lucidchartObjectId="3bly9.hPKQTv" id="238">
                    <mxCell style="html=1;overflow=block;blockSpacing=1;whiteSpace=wrap;fontSize=20.2;spacing=3.8;strokeOpacity=0;fillOpacity=100;rounded=1;absoluteArcSize=1;arcSize=9;fillColor=none;strokeWidth=2;align=center;strokeColor=#000000;fontColor=#000000;" parent="1" vertex="1">
                        <mxGeometry x="1002.95" y="680" width="35" height="34" as="geometry"/>
                    </mxCell>
                </UserObject>
                <mxCell id="239" value="" style="edgeStyle=none;html=1;exitX=1;exitY=0.5;exitDx=0;exitDy=0;entryX=0;entryY=0.5;entryDx=0;entryDy=0;fontSize=15;fontColor=#000000;endArrow=none;endFill=0;strokeColor=#000000;" parent="1" source="234" target="238" edge="1">
                    <mxGeometry relative="1" as="geometry">
                        <mxPoint x="984.0007" y="697.2909999999999" as="sourcePoint"/>
                        <mxPoint x="1088.9499999999925" y="706" as="targetPoint"/>
                        <Array as="points"/>
                    </mxGeometry>
                </mxCell>
                <mxCell id="240" value="" style="edgeStyle=none;html=1;exitX=0.5;exitY=1;exitDx=0;exitDy=0;fontSize=15;fontColor=#000000;endArrow=none;endFill=0;strokeColor=#000000;startArrow=none;entryX=0.5;entryY=0;entryDx=0;entryDy=0;" parent="1" source="241" target="246" edge="1">
                    <mxGeometry relative="1" as="geometry">
                        <mxPoint x="181.00000000000006" y="715.75" as="sourcePoint"/>
                        <mxPoint x="263" y="787" as="targetPoint"/>
                        <Array as="points"/>
                    </mxGeometry>
                </mxCell>
                <UserObject label="&lt;font style=&quot;font-size: 15px ; line-height: 1&quot;&gt;1,1&lt;/font&gt;" lucidchartObjectId="3bly9.hPKQTv" id="241">
                    <mxCell style="html=1;overflow=block;blockSpacing=1;whiteSpace=wrap;fontSize=20.2;spacing=3.8;strokeOpacity=0;fillOpacity=100;rounded=1;absoluteArcSize=1;arcSize=9;fillColor=none;strokeWidth=2;align=center;strokeColor=#000000;fontColor=#000000;" parent="1" vertex="1">
                        <mxGeometry x="283.00000000000006" y="619" width="35" height="34" as="geometry"/>
                    </mxCell>
                </UserObject>
                <mxCell id="242" value="" style="edgeStyle=none;html=1;exitX=0.5;exitY=1;exitDx=0;exitDy=0;entryX=0.5;entryY=0;entryDx=0;entryDy=0;fontSize=15;fontColor=#000000;endArrow=none;endFill=0;strokeColor=#000000;" parent="1" source="166" target="241" edge="1">
                    <mxGeometry relative="1" as="geometry">
                        <mxPoint x="166.05070000000006" y="787.5409999999999" as="sourcePoint"/>
                        <mxPoint x="270.99999999999255" y="796.25" as="targetPoint"/>
                        <Array as="points"/>
                    </mxGeometry>
                </mxCell>
                <UserObject label="&lt;font style=&quot;font-size: 15px ; line-height: 1&quot;&gt;0,N&lt;/font&gt;" lucidchartObjectId="3bly9.hPKQTv" id="243">
                    <mxCell style="html=1;overflow=block;blockSpacing=1;whiteSpace=wrap;fontSize=20.2;spacing=3.8;strokeOpacity=0;fillOpacity=100;rounded=1;absoluteArcSize=1;arcSize=9;fillColor=none;strokeWidth=2;align=center;strokeColor=#000000;fontColor=#000000;" parent="1" vertex="1">
                        <mxGeometry x="199.89000000000004" y="689" width="35" height="34" as="geometry"/>
                    </mxCell>
                </UserObject>
                <mxCell id="244" value="RESULT" style="swimlane;childLayout=stackLayout;horizontal=1;startSize=30;horizontalStack=0;rounded=1;fontSize=14;fontStyle=0;strokeWidth=2;resizeParent=0;resizeLast=1;shadow=0;dashed=0;align=center;fillColor=#1ba1e2;fontColor=#ffffff;strokeColor=none;swimlaneLine=0;" parent="1" vertex="1">
                    <mxGeometry x="70.89000000000006" y="666" width="101" height="80" as="geometry">
                        <mxRectangle x="206" y="605" width="76" height="30" as="alternateBounds"/>
                    </mxGeometry>
                </mxCell>
                <mxCell id="245" value="code result&#10;score" style="align=center;strokeColor=none;fillColor=#cce5ff;spacingLeft=4;fontSize=12;verticalAlign=middle;resizable=0;rotatable=0;part=1;fontColor=#000000;" parent="244" vertex="1">
                    <mxGeometry y="30" width="101" height="50" as="geometry"/>
                </mxCell>
                <mxCell id="246" value="GET" style="ellipse;whiteSpace=wrap;html=1;align=center;rounded=1;fontSize=15;fillColor=#ffcccc;strokeColor=none;fontColor=#000000;" parent="1" vertex="1">
                    <mxGeometry x="263.11" y="686" width="75" height="40" as="geometry"/>
                </mxCell>
                <mxCell id="247" value="" style="edgeStyle=none;html=1;exitX=0;exitY=0.5;exitDx=0;exitDy=0;entryX=1;entryY=0.5;entryDx=0;entryDy=0;fontSize=15;fontColor=#000000;endArrow=none;endFill=0;strokeColor=#000000;startArrow=none;" parent="1" source="246" target="243" edge="1">
                    <mxGeometry relative="1" as="geometry">
                        <mxPoint x="218.89000000000004" y="797.25" as="sourcePoint"/>
                        <mxPoint x="233.88999999999936" y="797.25" as="targetPoint"/>
                        <Array as="points"/>
                    </mxGeometry>
                </mxCell>
                <mxCell id="248" value="" style="edgeStyle=none;html=1;entryX=0;entryY=0.5;entryDx=0;entryDy=0;fontSize=15;fontColor=#000000;endArrow=none;endFill=0;strokeColor=#000000;startArrow=none;exitX=1;exitY=0.5;exitDx=0;exitDy=0;" parent="1" source="244" target="243" edge="1">
                    <mxGeometry relative="1" as="geometry">
                        <mxPoint x="325.89000000000004" y="787.25" as="sourcePoint"/>
                        <mxPoint x="288.89000000000004" y="797.25" as="targetPoint"/>
                        <Array as="points"/>
                    </mxGeometry>
                </mxCell>
            </root>
        </mxGraphModel>
    </diagram>
</mxfile>